<svg xmlns="http://www.w3.org/2000/svg" width="16" height="16" viewBox="0 0 16 16" fill="none">
  <rect x="0.5" y="0.5" width="15" height="15" rx="2" fill="#f3f3f3" stroke="#7c7c7c"/>
  <path fill-rule="evenodd" clip-rule="evenodd" d="M8 0C3.58 0 0 3.58 0 8c0 3.54 2.29 6.53 5.47 7.59.4.07.55-.17.55-.38 0-.19-.01-.82-.01-1.49C4 14.09 3.48 13.23 3.32 12.78 3.23 12.55 2.84 11.84 2.5 11.65 2.22 11.5 1.82 11.13 2.49 11.12 3.12 11.11 3.57 11.7 3.72 11.94 4.44 13.15 5.59 12.81 6.05 12.6 6.12 12.08 6.33 11.73 6.56 11.53 4.78 11.33 2.92 10.64 2.92 7.58 2.92 6.71 3.23 5.99 3.74 5.43 3.66 5.23 3.38 4.41 3.82 3.31c0 0 .67-.21 2.2.82.64-.18 1.32-.27 2-.27.68 0 1.36.09 2 .27 1.53-1.04 2.2-.82 2.2-.82.44 1.1.16 1.92.08 2.12.51.56.82 1.27.82 2.15 0 3.07-1.87 3.75-3.65 3.95.29.25.54.73.54 1.48 0 1.07-.01 1.93-.01 2.2 0 .21.15.46.55.38C13.71 14.53 16 11.53 16 8c0-4.42-3.58-8-8-8Z" fill="#111" transform="translate(1 1) scale(0.875)"/>
</svg>
